<svg xmlns="http://www.w3.org/2000/svg" width="142" height="142"><g fill="none" fill-rule="evenodd" transform="translate(1 1)"><circle cx="70" cy="70" r="70" stroke="#E0E0E0" stroke-width="2"/><g fill="#222" stroke="#FFF" stroke-width=".5"><path d="M51.826 91.033h43.609V34.567H51.826v56.466zm41.044 7.7H47.978v2.567H92.87v5.133H47.978a6.426 6.426 0 0 1-6.413-6.416 6.422 6.422 0 0 1 6.413-6.417H92.87v5.133zm-51.305-4.998V40.983a6.422 6.422 0 0 1 6.413-6.416h1.283v56.466h-1.283c-.308 0-.617.017-.924.048-.1.01-.195.032-.296.044-.2.03-.402.053-.598.094-.129.026-.243.063-.365.094-.166.042-.336.08-.5.128-.128.042-.256.094-.385.142-.148.054-.3.103-.444.165-.146.062-.257.12-.377.181-.119.06-.278.128-.413.203-.134.074-.24.146-.362.22-.12.072-.256.152-.384.235-.129.084-.231.173-.346.257-.116.085-.235.17-.347.265-.111.093-.218.197-.327.296-.109.098-.213.189-.313.29a.08.08 0 0 1-.032.04zM96.717 32H47.978c-4.956.006-8.972 4.024-8.978 8.983v59.034c.006 4.958 4.023 8.977 8.978 8.983h46.174c.708 0 1.283-.575 1.283-1.283V93.6h1.282c.709 0 1.283-.575 1.283-1.283V33.283c0-.708-.574-1.283-1.283-1.283z"/><path d="M67.217 52.533a6.403 6.403 0 0 1 5.345 2.873 1.33 1.33 0 0 0 2.137 0 6.411 6.411 0 0 1 11.758 3.544c0 5.39-8.741 11.567-12.827 13.928-4.086-2.357-12.826-8.526-12.826-13.928a6.422 6.422 0 0 1 6.413-6.417m5.8 22.944a1.28 1.28 0 0 0 1.228 0c.603-.33 14.777-8.161 14.777-16.527a8.983 8.983 0 0 0-5.585-8.318 8.975 8.975 0 0 0-9.807 2.03 8.975 8.975 0 0 0-9.806-2.03 8.983 8.983 0 0 0-5.585 8.318c0 8.366 14.174 16.197 14.777 16.527"/></g></g></svg>