<svg xmlns="http://www.w3.org/2000/svg" width="162" height="162"><g fill="none" fill-rule="evenodd" transform="translate(1 1)"><circle cx="80" cy="80" r="80" stroke="#E0E0E0" stroke-width="2"/><path fill="#222" stroke="#FFF" stroke-width="1.5" d="M110.563 96.98a3.253 3.253 0 0 1-2.325.972 3.252 3.252 0 0 1-2.325-.972l-7.74-7.807-.001-.001-7.28-7.343a1.848 1.848 0 0 0-2.63 0 1.887 1.887 0 0 0 0 2.652l15.02 15.151a3.341 3.341 0 0 1 0 4.691 3.252 3.252 0 0 1-2.324.972 3.25 3.25 0 0 1-2.326-.972l-15.02-15.15a1.85 1.85 0 0 0-2.63 0 1.888 1.888 0 0 0 0 2.652l7.279 7.342.001.002 7.74 7.807a3.341 3.341 0 0 1 0 4.691 3.272 3.272 0 0 1-4.65 0l-7.74-7.807a1.858 1.858 0 0 0-.475-.347l-2.208-2.227a1.85 1.85 0 0 0-2.63 0 1.888 1.888 0 0 0 0 2.653l10.358 10.447a3.341 3.341 0 0 1 0 4.69 3.252 3.252 0 0 1-2.326.972 3.25 3.25 0 0 1-2.325-.971l-3.94-3.975a7.13 7.13 0 0 0 .458-2.522 7.054 7.054 0 0 0-2.052-4.998 6.932 6.932 0 0 0-5.238-2.063 7.084 7.084 0 0 0-2.042-5.28 6.932 6.932 0 0 0-5.238-2.064 7.082 7.082 0 0 0-2.042-5.28 6.932 6.932 0 0 0-5.238-2.063 7.084 7.084 0 0 0-2.042-5.28 6.974 6.974 0 0 0-9.91 0l-3.205 3.232a7.049 7.049 0 0 0-1.032 1.326c-4.368-4.68-6.765-10.763-6.765-17.22 0-6.714 2.592-13.028 7.3-17.776 4.707-4.748 10.966-7.363 17.623-7.363 6.05 0 11.77 2.16 16.296 6.118L65.512 65.395a8.043 8.043 0 0 0-2.34 5.7c0 2.152.831 4.176 2.34 5.699a7.932 7.932 0 0 0 5.65 2.356 7.93 7.93 0 0 0 5.65-2.356l5.064-5.108h6.555c.54 0 1.076-.037 1.605-.103l20.528 20.706a3.343 3.343 0 0 1-.001 4.691m-34.721 17.946l-3.205 3.233a3.252 3.252 0 0 1-2.325.971 3.252 3.252 0 0 1-2.325-.971 3.341 3.341 0 0 1 0-4.691l3.204-3.233a3.253 3.253 0 0 1 2.326-.972c.878 0 1.704.345 2.325.972a3.31 3.31 0 0 1 .963 2.345 3.31 3.31 0 0 1-.963 2.346m-15.135-4.111a3.309 3.309 0 0 1-.964-2.346c0-.886.342-1.719.964-2.345l3.204-3.233a3.252 3.252 0 0 1 2.325-.971c.879 0 1.704.345 2.325.971a3.34 3.34 0 0 1 0 4.691l-3.204 3.233a3.272 3.272 0 0 1-4.65 0m-7.28-7.344a3.31 3.31 0 0 1-.964-2.345c0-.886.342-1.72.963-2.345l3.205-3.233a3.252 3.252 0 0 1 2.325-.972 3.25 3.25 0 0 1 2.325.972 3.341 3.341 0 0 1 0 4.69l-3.204 3.233a3.272 3.272 0 0 1-4.65 0M48.47 97.1a3.252 3.252 0 0 1-2.325-.971 3.31 3.31 0 0 1-.963-2.346c0-.886.342-1.719.963-2.345l3.204-3.232a3.252 3.252 0 0 1 2.326-.972c.878 0 1.704.345 2.325.972a3.34 3.34 0 0 1 0 4.69l-3.205 3.233a3.252 3.252 0 0 1-2.325.971m75.007-38.46a1.851 1.851 0 0 0-2.536-.703 1.885 1.885 0 0 0-.697 2.557c5.524 9.798 3.857 22.214-4.055 30.194l-1.41 1.422a7.031 7.031 0 0 0-1.587-2.472L94.087 70.365a12.857 12.857 0 0 0 3.417-2.47l3.665-3.697a1.887 1.887 0 0 0 0-2.652 1.849 1.849 0 0 0-2.63 0l-3.665 3.696a9.016 9.016 0 0 1-6.444 2.693h-7.326c-.493 0-.966.198-1.315.55l-5.608 5.656a4.25 4.25 0 0 1-6.04 0 4.34 4.34 0 0 1 0-6.093l12.803-12.914c7.824-7.892 20.039-9.628 29.703-4.22.898.502 2.03.175 2.528-.731a1.884 1.884 0 0 0-.724-2.55c-5.33-2.982-11.61-4.176-17.685-3.36a28.228 28.228 0 0 0-15.153 6.974C74.373 46.562 67.703 44 60.642 44c-7.65 0-14.843 3.005-20.253 8.462S32 65.174 32 72.892c0 7.716 2.98 14.971 8.389 20.428l.7.707a1.9 1.9 0 0 0 .401.305 7.062 7.062 0 0 0 2.026 4.448 6.955 6.955 0 0 0 5.235 2.06 7.054 7.054 0 0 0 2.046 5.283 6.954 6.954 0 0 0 5.234 2.06 7.052 7.052 0 0 0 2.046 5.283 6.954 6.954 0 0 0 5.237 2.061 7.084 7.084 0 0 0 2.042 5.284 6.932 6.932 0 0 0 4.955 2.07 6.93 6.93 0 0 0 4.955-2.07l2.6-2.622 3.51 3.54a6.931 6.931 0 0 0 4.954 2.071 6.931 6.931 0 0 0 4.955-2.07 7.087 7.087 0 0 0 2.04-5.352 6.955 6.955 0 0 0 5.306-2.058 7.082 7.082 0 0 0 2.043-5.28 6.931 6.931 0 0 0 5.238-2.063 7.083 7.083 0 0 0 2.042-5.281 6.931 6.931 0 0 0 5.238-2.063 7.035 7.035 0 0 0 1.52-2.298c.18-.088.35-.207.5-.359l3.606-3.637c9.093-9.17 11.009-23.439 4.66-34.7"/></g></svg>