<svg xmlns="http://www.w3.org/2000/svg" width="162" height="162"><g fill="none" fill-rule="evenodd" transform="translate(1 1)"><circle cx="80" cy="80" r="80" stroke="#E0E0E0" stroke-width="2"/><path fill="#222" stroke="#FFF" stroke-width="1.5" d="M68.518 102.271V91.934c0-4.825-1.67-9.564-4.702-13.346l-5.85-7.298c-1.479-1.843-3.767-2.746-6.124-2.415-2.356.332-4.299 1.83-5.198 4.007a6.471 6.471 0 0 0 .616 6.09l6.266 9.325a1.78 1.78 0 0 0 2.45.488 1.733 1.733 0 0 0 .494-2.42l-6.266-9.324a3.017 3.017 0 0 1-.287-2.84 3.051 3.051 0 0 1 2.423-1.868 3.076 3.076 0 0 1 2.854 1.126l5.852 7.298a17.934 17.934 0 0 1 3.937 11.177v10.337H41.316V79.163c0-6.227 1.226-12.3 3.642-18.052l8.06-19.178a3.942 3.942 0 0 1 2.358-2.213 4.004 4.004 0 0 1 3.244.245c1.836.978 2.604 3.145 1.786 5.04L51.87 64.78a1.739 1.739 0 0 0 .933 2.292 1.775 1.775 0 0 0 2.318-.921l8.535-19.775c1.54-3.568.095-7.646-3.361-9.486a7.637 7.637 0 0 0-6.104-.46 7.518 7.518 0 0 0-4.439 4.164l-8.059 19.178a49.796 49.796 0 0 0-3.912 19.39v23.11h-.015c-.976 0-1.767.781-1.767 1.746v12.66c0 .965.791 1.747 1.767 1.747.976 0 1.768-.782 1.768-1.746v-10.915H66.75v10.915c0 .964.791 1.746 1.768 1.746.976 0 1.767-.782 1.767-1.746v-12.661c0-.965-.791-1.747-1.767-1.747M91 117.679c0 .964.791 1.746 1.767 1.746.976 0 1.768-.782 1.768-1.746v-10.915h27.215v10.915c0 .964.791 1.746 1.768 1.746.976 0 1.767-.782 1.767-1.746v-12.661c0-.965-.791-1.747-1.767-1.747h-.015V80.163a49.81 49.81 0 0 0-3.912-19.391l-8.06-19.178a7.518 7.518 0 0 0-4.439-4.165 7.637 7.637 0 0 0-6.103.461c-3.456 1.84-4.9 5.918-3.36 9.486l8.533 19.775a1.775 1.775 0 0 0 2.32.92 1.739 1.739 0 0 0 .931-2.29l-8.534-19.775c-.818-1.896-.05-4.063 1.786-5.04a4.004 4.004 0 0 1 3.243-.246 3.942 3.942 0 0 1 2.36 2.213l8.058 19.178a46.357 46.357 0 0 1 3.642 18.052v23.108H96.302V92.934c0-4.04 1.398-8.01 3.937-11.177l5.851-7.298a3.076 3.076 0 0 1 2.855-1.126 3.051 3.051 0 0 1 2.423 1.868c.386.936.28 1.997-.287 2.84l-6.266 9.324a1.734 1.734 0 0 0 .494 2.42 1.78 1.78 0 0 0 2.45-.488l6.266-9.324a6.471 6.471 0 0 0 .615-6.091c-.898-2.178-2.841-3.675-5.198-4.007-2.356-.33-4.644.572-6.122 2.415l-5.851 7.298a21.416 21.416 0 0 0-4.702 13.346v10.337c-.976 0-1.767.782-1.767 1.747v12.66z"/><path fill="#222" stroke="#FFF" stroke-width="1.5" d="M88.584 75.527c-2.83 2.59-5.696 4.727-7.16 5.774-1.455-1.042-4.301-3.163-7.128-5.747-5.005-4.576-7.761-8.616-7.761-11.376 0-4.79 3.535-8.685 7.881-8.685 2.157 0 4.172.944 5.673 2.66.335.383.823.603 1.336.603.513 0 1.001-.22 1.337-.604 1.5-1.715 3.515-2.66 5.673-2.66 4.345 0 7.881 3.897 7.881 8.686 0 2.754-2.746 6.785-7.732 11.349M88.434 52c-2.545 0-5.018.919-7.009 2.566C79.435 52.92 76.962 52 74.416 52 68.121 52 63 57.463 63 64.178c0 3.854 2.993 8.544 8.896 13.94 4.213 3.851 8.361 6.65 8.536 6.767a1.781 1.781 0 0 0 1.987 0c.175-.117 4.322-2.916 8.535-6.767 5.903-5.396 8.897-10.086 8.897-13.94C99.85 57.463 94.729 52 88.435 52"/></g></svg>