<svg version="1.1" id="Layer_1" xmlns="http://www.w3.org/2000/svg" x="0" y="0" viewBox="0 0 162 162" xml:space="preserve" enable-background="new 0 0 162 162"><style>.st2{fill:#fff}</style><circle id="a_1_" cx="81" cy="81" r="80" fill="none" stroke="#e0e0e0" stroke-width="2"/><defs><filter id="Adobe_OpacityMaskFilter" filterUnits="userSpaceOnUse" x="36" y="33.3" width="84" height="89.5"><feColorMatrix values="1 0 0 0 0 0 1 0 0 0 0 0 1 0 0 0 0 0 1 0"/></filter></defs><mask maskUnits="userSpaceOnUse" x="36" y="33.3" width="84" height="89.5" id="b_1_"><g filter="url(#Adobe_OpacityMaskFilter)"><circle id="a_2_" class="st2" cx="80" cy="80.4" r="80"/></g></mask><path d="M37 121.8h82v-.2H37v.2zm6-20.2h13v20H43v-20zm29-15h13v35H72v-35zm27-25v60h13v-60H99zM48 84.5l35.6-37.9 8.1 8.4L113 34" mask="url(#b_1_)" fill="none" stroke="#222" stroke-width="2"/><defs><filter id="Adobe_OpacityMaskFilter_1_" filterUnits="userSpaceOnUse" x="106" y="33" width="8.5" height="8.5"><feColorMatrix values="1 0 0 0 0 0 1 0 0 0 0 0 1 0 0 0 0 0 1 0"/></filter></defs><mask maskUnits="userSpaceOnUse" x="106" y="33" width="8.5" height="8.5" id="b_2_"><g filter="url(#Adobe_OpacityMaskFilter_1_)"><circle id="a_3_" class="st2" cx="80" cy="80.4" r="80"/></g></mask><path d="M113.5 34h.5-.5v-.5.5zm0 0H106h7.5v7.5V34z" mask="url(#b_2_)" fill="none" stroke="#222" stroke-width="2"/></svg>