<svg xmlns="http://www.w3.org/2000/svg" width="162" height="162"><g fill="none" fill-rule="evenodd" transform="translate(1 1)"><circle cx="80" cy="80" r="80" fill-rule="nonzero" stroke="#E0E0E0" stroke-width="2"/><path fill="#222" stroke="#FFF" stroke-width="1.5" d="M55.682 86.304H42.78a1.78 1.78 0 0 0 0 3.561h11.122v27.421H42.78a1.78 1.78 0 0 0 0 3.561h12.902a1.78 1.78 0 0 0 1.78-1.78v-.015H81.01a51.246 51.246 0 0 0 19.76-3.942l19.543-8.12a7.61 7.61 0 0 0 4.244-4.472 7.616 7.616 0 0 0-.47-6.15 7.557 7.557 0 0 0-9.666-3.386l-20.151 8.599a1.781 1.781 0 0 0 1.396 3.275l20.151-8.598a4.016 4.016 0 0 1 5.137 1.8 3.993 3.993 0 0 1 .25 3.267 3.99 3.99 0 0 1-2.256 2.377l-19.543 8.12a47.706 47.706 0 0 1-18.395 3.669H57.46V91.646h10.535c4.117 0 8.162 1.408 11.39 3.967l7.436 5.895a3.08 3.08 0 0 1 1.147 2.876 3.079 3.079 0 0 1-1.903 2.441 3.104 3.104 0 0 1-2.894-.289l-9.501-6.313a1.78 1.78 0 1 0-1.969 2.966l9.502 6.314a6.66 6.66 0 0 0 6.207.62 6.607 6.607 0 0 0 4.082-5.238 6.61 6.61 0 0 0-2.46-6.168l-7.438-5.896a21.98 21.98 0 0 0-13.6-4.736H57.462a1.78 1.78 0 0 0-1.78-1.78"/><path fill="#FFF" fill-rule="nonzero" stroke="#222" stroke-width="2" d="M58.5 58.328c-4.426 0-8.014-3.7-8.014-8.264 0-4.564 3.588-8.264 8.014-8.264 4.426 0 8.014 3.7 8.014 8.264 0 4.564-3.588 8.264-8.014 8.264zm-.82 0h1.64c8.66 0 15.68 7.02 15.68 15.68V76.8H42v-2.792c0-8.66 7.02-15.68 15.68-15.68zm48.82 0c-4.426 0-8.014-3.7-8.014-8.264 0-4.564 3.588-8.264 8.014-8.264 4.426 0 8.014 3.7 8.014 8.264 0 4.564-3.588 8.264-8.014 8.264zm-.82 0h1.64c8.66 0 15.68 7.02 15.68 15.68V76.8H90v-2.792c0-8.66 7.02-15.68 15.68-15.68z"/><path fill="#FFF" fill-rule="nonzero" stroke="#222" stroke-width="2" d="M82.5 58.328c-4.426 0-8.014-3.7-8.014-8.264 0-4.564 3.588-8.264 8.014-8.264 4.426 0 8.014 3.7 8.014 8.264 0 4.564-3.588 8.264-8.014 8.264zm-.82 0h1.64c8.66 0 15.68 7.02 15.68 15.68V76.8H66v-2.792c0-8.66 7.02-15.68 15.68-15.68z"/></g></svg>