<svg xmlns="http://www.w3.org/2000/svg" width="142" height="142"><g fill="none" fill-rule="evenodd" transform="translate(1 1)"><circle cx="70" cy="70" r="70" stroke="#E0E0E0" stroke-width="2"/><path d="M38.724 68.026l-2.564.1c.035.884.106 1.78.21 2.66l2.55-.305a30.855 30.855 0 0 1-.196-2.455m-2.354-5.225c-.104.875-.176 1.77-.21 2.66l2.564.1c.032-.822.098-1.647.194-2.457l-2.549-.303zm12.903-22.56a33.491 33.491 0 0 0-2.057 1.703l1.716 1.91c.61-.55 1.249-1.078 1.897-1.57l-1.556-2.043zM39.3 52.577a33.486 33.486 0 0 0-1.04 2.461l2.402.902c.289-.767.611-1.53.959-2.267l-2.322-1.096zm-1.88 4.996a33.319 33.319 0 0 0-.63 2.592l2.516.507a29.98 29.98 0 0 1 .582-2.392l-2.467-.707zm7.885-13.765a33.946 33.946 0 0 0-1.76 2.004l1.996 1.615a30.993 30.993 0 0 1 1.625-1.852l-1.86-1.767zm8.452-6.45c-.776.414-1.55.87-2.302 1.354l1.391 2.158a29.722 29.722 0 0 1 2.12-1.248l-1.209-2.264zM41.952 47.95c-.502.733-.98 1.493-1.42 2.262l2.227 1.275c.406-.708.847-1.41 1.31-2.085l-2.117-1.452zM63.42 96.983l-.507 2.516c.863.175 1.751.315 2.638.419l.298-2.549a30.32 30.32 0 0 1-2.43-.386m12.242-.016a31.51 31.51 0 0 1-2.433.394l.31 2.549a34.202 34.202 0 0 0 2.633-.426l-.51-2.517zm-4.887.591a31.15 31.15 0 0 1-2.464.003l-.101 2.565c.427.018.859.025 1.295.025.46-.002.917-.011 1.373-.03l-.103-2.563zm21.015-55.603l-1.715 1.91a31.45 31.45 0 0 1 1.765 1.716l1.863-1.764a33.192 33.192 0 0 0-1.913-1.862m3.671 3.865l-1.996 1.614a31.132 31.132 0 0 1 1.472 1.977l2.116-1.452a34.493 34.493 0 0 0-1.593-2.139m7.381 19.644l-2.564.1a30.953 30.953 0 0 1 0 2.465l2.564.1a33.53 33.53 0 0 0 0-2.665m-4.367-15.246l-2.228 1.277c.406.71.789 1.445 1.138 2.184l2.322-1.096c-.378-.8-.792-1.596-1.232-2.365m2.27 4.825l-2.403.904c.288.765.547 1.551.773 2.337l2.468-.707a33.125 33.125 0 0 0-.838-2.534m1.467 5.127l-2.516.506c.162.803.293 1.622.388 2.433l2.549-.303a33.011 33.011 0 0 0-.421-2.636M87.553 38.717l-1.39 2.158c.685.442 1.363.918 2.016 1.417l1.558-2.042a33.424 33.424 0 0 0-2.184-1.533m-4.701-2.521l-1.028 2.351c.748.328 1.492.69 2.215 1.077l1.214-2.261a32.08 32.08 0 0 0-2.401-1.167" fill="#222" stroke="#FFF" stroke-width=".5"/><path stroke="#222" stroke-width="1.8" d="M43.5 87.81c-4.004 0-7.25-3.092-7.25-6.905C36.25 77.09 39.496 74 43.5 74s7.25 3.091 7.25 6.905c0 3.813-3.246 6.905-7.25 6.905zm-4.37 0h8.74c5.595 0 10.13 4.535 10.13 10.129V103H29v-5.061c0-5.594 4.535-10.13 10.13-10.13zm58.37 0c-4.004 0-7.25-3.092-7.25-6.905C90.25 77.09 93.496 74 97.5 74s7.25 3.091 7.25 6.905c0 3.813-3.246 6.905-7.25 6.905zm-4.37 0h8.74c5.595 0 10.13 4.535 10.13 10.129V103H83v-5.061c0-5.594 4.535-10.13 10.13-10.13zm-24.63-47c-4.004 0-7.25-3.092-7.25-6.905C61.25 30.09 64.496 27 68.5 27s7.25 3.091 7.25 6.905c0 3.813-3.246 6.905-7.25 6.905zm-4.37 0h8.74c5.595 0 10.13 4.535 10.13 10.129V56H54v-5.061c0-5.594 4.535-10.13 10.13-10.13z"/></g></svg>