<svg version="1.1" id="Layer_1" xmlns="http://www.w3.org/2000/svg" x="0" y="0" viewBox="0 0 142 142" xml:space="preserve"><style>.st1{fill:#222}</style><circle cx="71" cy="71" r="70" fill="none" stroke="#e0e0e0" stroke-width="2"/><path class="st1" d="M54.6 42.1h1.7v63.2h-1.7V42.1zm33.5.7h1.7v62.5h-1.7V42.8z"/><path d="M48.8 44.4l22.7-13.7m24.1 14.1l-24.1-14" fill="none" stroke="#222" stroke-width="1.76" stroke-linecap="square"/><path class="st1" d="M107.3 54.1h1.7V105h-1.7V54.1zm-72.8.1h1.7v50.4h-1.7V54.2z"/><path class="st1" d="M88.9 54.2H109V56H88.9v-1.8zm-54.4 0h20.9V56H34.5v-1.8z"/><path d="M62.9 46.9h4.9V54h-4.9v-7.1zm12.7 0h4.9V54h-4.9v-7.1zm20.9 15.6h4.9v7.1h-4.9v-7.1zm0 15.5h4.9v7.1h-4.9V78zM42.8 62.5h4.9v7.1h-4.9v-7.1zm0 15.5h4.9v7.1h-4.9V78zm32.8-15.5h4.9v7.1h-4.9v-7.1zm-12.7 0h4.9v7.1h-4.9v-7.1zm0 15.5h4.9v7.1h-4.9V78zm12.7 0h4.9v7.1h-4.9V78z" fill="none" stroke="#222" stroke-width="1.76"/><path class="st1" d="M60.2 92.7H84v1.8H60.2v-1.8z"/><path class="st1" d="M71.7 93.5h1.7v11.7h-1.7V93.5zm-6.7 0h1.7v11.9H65V93.5zm13.5 0h1.7v11.9h-1.7V93.5z"/><path class="st1" d="M47.6 104.7h49.6v1.8H47.6v-1.8zM36.5 109h70.7v1.8H36.5V109zm34.4-88.9h1.5V31h-1.5V20.1z"/><path d="M71.7 19.9h11.6v3.8H71.7v-3.8z" fill="none" stroke="#222" stroke-width="1.5"/></svg>