<svg xmlns="http://www.w3.org/2000/svg" width="142" height="142"><g fill="none" fill-rule="evenodd" transform="translate(1 1)"><circle cx="70" cy="70" r="70" fill-rule="nonzero" stroke="#E0E0E0" stroke-width="2"/><path fill="#222" stroke="#FFF" stroke-width=".5" d="M114.351 93.037l-5.948 6.002a.547.547 0 0 1-.781 0L90.758 82.02a.558.558 0 0 1 0-.789l.362-.365 5.586-5.637a.547.547 0 0 1 .782 0l16.863 17.017a.559.559 0 0 1 0 .79zM70.345 59.903l-6.888 6.952-12.528-12.642L69.93 35.039 82.458 47.68l-6.887 6.95-.002.001-5.224 5.272zm-6.413 11.894l-2.215 2.235a.651.651 0 0 1-.906 0l-16.995-17.15a.645.645 0 0 1-.188-.457c0-.172.067-.335.188-.457l2.215-2.235a.635.635 0 0 1 .906 0l16.995 17.15a.65.65 0 0 1 0 .914zm5.523-41.702l2.215-2.235a.633.633 0 0 1 .906 0L89.57 45.01a.65.65 0 0 1 .188.457.645.645 0 0 1-.188.458l-2.215 2.235a.652.652 0 0 1-.906 0L69.455 31.01a.645.645 0 0 1-.188-.457c0-.173.067-.335.188-.458zm46.655 60.378L99.246 73.456a3.006 3.006 0 0 0-3.716-.457l-9.474-9.56a1.235 1.235 0 0 0-1.758 0 1.263 1.263 0 0 0 0 1.774l9.409 9.495-3.467 3.498L72.982 60.79l3.467-3.498 2.309 2.33c.485.49 1.273.49 1.758 0a1.262 1.262 0 0 0 0-1.774l-2.31-2.33 6.01-6.064.476.48c.59.596 1.376.924 2.211.924s1.62-.328 2.212-.924l2.214-2.236a3.15 3.15 0 0 0 .916-2.231 3.15 3.15 0 0 0-.916-2.232l-16.995-17.15a3.093 3.093 0 0 0-2.211-.924c-.836 0-1.62.328-2.211.924l-2.215 2.235a3.15 3.15 0 0 0-.917 2.232c0 .843.326 1.635.916 2.231l.476.48L49.17 52.438l-.476-.48a3.111 3.111 0 0 0-4.422 0l-2.215 2.236a3.15 3.15 0 0 0-.916 2.231c0 .843.325 1.636.916 2.232l16.995 17.15c.59.596 1.376.924 2.211.924s1.62-.328 2.211-.924l2.215-2.235a3.18 3.18 0 0 0 0-4.463l-.475-.48 6.01-6.064 17.322 17.48a3.066 3.066 0 0 0-.438 1.582c0 .82.317 1.59.89 2.169l16.864 17.017c.574.58 1.338.899 2.15.899.811 0 1.575-.32 2.149-.899l5.948-6.002c.574-.579.89-1.35.89-2.169 0-.82-.316-1.59-.89-2.169zm-30.977 11.882H37.487v-3.162c0-1.622 1.307-2.941 2.914-2.941h41.818c1.607 0 2.914 1.32 2.914 2.94v3.163zm-2.914-8.612h-1.905v-6.611c0-1.475-1.189-2.675-2.65-2.675H56.231c-.687 0-1.243.561-1.243 1.254s.556 1.255 1.243 1.255h21.431c.09 0 .164.074.164.165v6.612H44.792V87.13c0-.091.074-.165.164-.165h3.464c.687 0 1.243-.562 1.243-1.255 0-.693-.556-1.254-1.243-1.254h-3.464c-1.462 0-2.65 1.2-2.65 2.675v6.61H40.4c-2.978 0-5.4 2.446-5.4 5.45v3.573c0 1.157.932 2.099 2.079 2.099h48.46c1.146 0 2.08-.942 2.08-2.1v-3.571c0-3.005-2.423-5.45-5.401-5.45z"/></g></svg>