<svg xmlns="http://www.w3.org/2000/svg" width="142" height="142"><g fill="none" stroke-width="2" transform="translate(1 1)"><circle cx="70" cy="70" r="70" stroke="#E0E0E0"/><g stroke="#222"><path d="M99.362 70.89c-4.87 0-8.819-3.889-8.819-8.686 0-4.798 3.948-8.687 8.82-8.687 4.87 0 8.818 3.89 8.818 8.687 0 4.797-3.948 8.686-8.819 8.686zm-5.094 0h10.188c6.928 0 12.544 5.616 12.544 12.544V90H81.724v-6.566c0-6.928 5.616-12.544 12.544-12.544zm-52.63 0c-4.87 0-8.819-3.889-8.819-8.686 0-4.798 3.948-8.687 8.819-8.687 4.87 0 8.819 3.89 8.819 8.687 0 4.797-3.948 8.686-8.82 8.686zm-5.094 0h10.188c6.928 0 12.544 5.616 12.544 12.544V90H24v-6.566c0-6.928 5.616-12.544 12.544-12.544z"/><path fill="#FFF" d="M70.5 65.905c-6.199 0-11.224-4.904-11.224-10.953C59.276 48.904 64.3 44 70.5 44s11.224 4.904 11.224 10.952c0 6.05-5.025 10.953-11.224 10.953zm-6.768 0h13.536c8.66 0 15.68 7.02 15.68 15.68V90H48.052v-8.415c0-8.66 7.02-15.68 15.68-15.68z"/></g></g></svg>