<svg xmlns="http://www.w3.org/2000/svg" width="142" height="142"><g fill="none" fill-rule="evenodd" transform="translate(1 1)"><circle cx="70" cy="70" r="70" stroke="#E0E0E0" stroke-width="2"/><g fill="#222" stroke="#FFF" stroke-width=".7"><path d="M106.286 70.159l-7.884 14.256-10.487 10.344a6.607 6.607 0 0 0-1.986 4.734v4.475H72.357V88.676c0-1.022.39-1.995 1.096-2.741l16.736-17.687c.255-.27.615-.425.99-.425h.178a1.35 1.35 0 0 1 1.357 1.338v2.336l-9.21 11.563 2.134 1.653 14.929-18.742c.188-.236.29-.526.29-.826V47.742c0-1.477 1.218-2.678 2.714-2.678 1.497 0 2.715 1.201 2.715 2.678v22.417zm-33.929 39.164H85.93v-2.678H72.357v2.678zm-16.286 0h13.572v-2.678H56.07v2.678zM54.085 94.76L43.598 84.416l-7.884-14.257V47.742c0-1.477 1.218-2.678 2.715-2.678 1.496 0 2.714 1.201 2.714 2.678v17.403c0 .3.102.59.29.828l14.929 18.742 2.133-1.654-9.21-11.564v-2.336c0-.737.61-1.338 1.358-1.338h.177c.376 0 .736.155.993.424l16.736 17.687a3.985 3.985 0 0 1 1.094 2.742v15.292H56.07v-4.475a6.6 6.6 0 0 0-1.986-4.733zm49.486-52.373c-2.993 0-5.428 2.402-5.428 5.355v16.94l-2.826 3.547c-.426-1.767-2.04-3.084-3.96-3.084h-.177c-1.126 0-2.21.466-2.977 1.276L71.469 84.108c-.177.186-.317.396-.469.598-.152-.202-.292-.412-.469-.598L53.797 66.421a4.115 4.115 0 0 0-2.977-1.276h-.177c-1.92 0-3.534 1.317-3.96 3.085l-2.826-3.548v-16.94c0-2.953-2.435-5.355-5.428-5.355-2.994 0-5.429 2.402-5.429 5.355V70.5c0 .224.057.444.166.641l8.143 14.726c.062.111.14.216.231.305l10.626 10.481a4.016 4.016 0 0 1 1.191 2.84v11.168c0 .739.608 1.339 1.357 1.339h32.572c.749 0 1.357-.6 1.357-1.339V99.493a4.02 4.02 0 0 1 1.191-2.84l10.625-10.48c.091-.09.17-.195.232-.306l8.143-14.726c.109-.197.166-.417.166-.641V47.742c0-2.953-2.435-5.355-5.429-5.355z"/><path d="M69.643 31.745V33.8l-2.317 2.286c-.255.25-.397.591-.397.946v2.123l-4.634 4.57h-2.152c-.36 0-.706.141-.96.393l-2.316 2.285h-2.153c-.36 0-.705.14-.96.393l-1.641 1.62c.968-8.955 8.361-16.026 17.53-16.67M90 50.418c0 2.954-.715 5.74-1.954 8.228l-3.872-3.82a1.363 1.363 0 0 0-.96-.391h-2.152l-1.92-1.894V50.42c0-.355-.142-.696-.397-.946l-2.316-2.285v-1.57l2.316-2.284c.255-.25.398-.592.398-.947v-2.123l2.317-2.285c.255-.25.397-.592.397-.947V35.06C86.773 38.451 90 44.067 90 50.42M71 69.16c-9.86 0-17.985-7.448-18.908-16.94l3.184-3.14h2.153c.36 0 .705-.14.96-.393l2.316-2.285h2.152c.36 0 .706-.14.96-.392l5.428-5.355c.255-.25.398-.591.398-.946v-2.123L71.96 35.3c.255-.25.397-.591.397-.946v-2.61c2.416.171 4.702.787 6.786 1.767v2.966l-2.317 2.285c-.255.25-.397.592-.397.947v2.123l-2.317 2.285c-.255.25-.398.592-.398.947v2.677c0 .355.143.696.398.946l2.317 2.286v2.123c0 .355.142.696.397.946l2.715 2.678c.253.251.6.392.959.392h2.152l3.984 3.93A19.06 19.06 0 0 1 71 69.16m0 2.678c11.972 0 21.714-9.61 21.714-21.42C92.714 38.61 82.972 29 71 29c-11.972 0-21.714 9.61-21.714 21.42 0 11.81 9.742 21.419 21.714 21.419"/><path d="M73.714 61.913l-1.919 1.894h-1.59l-2.317-2.286a1.363 1.363 0 0 0-.96-.392h-2.152l-2.316-2.285a1.363 1.363 0 0 0-.96-.392h-1.357v-4.017h4.071c.36 0 .706-.14.96-.392l2.316-2.285h1.591L71 53.651v3.462c0 .355.142.696.398.946l2.316 2.286v1.568zm0-5.354v-3.462c0-.355-.142-.696-.397-.947l-2.715-2.677a1.363 1.363 0 0 0-.96-.392H66.93c-.36 0-.706.14-.96.392l-2.317 2.285h-4.866c-.75 0-1.357.6-1.357 1.339v6.693c0 .739.608 1.34 1.357 1.34h2.152l2.317 2.284c.254.252.6.393.96.393h2.152l2.316 2.285c.254.251.6.392.96.392h2.714c.36 0 .706-.14.96-.392l2.714-2.678c.255-.25.398-.591.398-.946V59.79c0-.355-.143-.696-.398-.946l-2.317-2.285z"/></g></g></svg>