<svg xmlns="http://www.w3.org/2000/svg" width="162" height="162"><g fill="none" fill-rule="evenodd" transform="translate(1 1)"><path fill="#000" stroke="#FFF" d="M90.48 107.984H69.333c-.897 0-1.626-.718-1.626-1.601s.73-1.602 1.626-1.602H90.48c.897 0 1.627.719 1.627 1.602 0 .883-.73 1.601-1.627 1.601zm-1.627 4.004c0 4.857-4.013 8.809-8.946 8.809-4.934 0-8.947-3.952-8.947-8.809v-.8h17.893v.8zm-10.66-28.112a8.667 8.667 0 0 1-7.302-2.425c-1.95-1.92-2.836-4.55-2.462-7.188a8.666 8.666 0 0 1 7.302 2.424c1.95 1.92 2.835 4.55 2.462 7.189zm5.89-7.189a8.667 8.667 0 0 1 7.301-2.424c.374 2.639-.512 5.269-2.462 7.188a8.666 8.666 0 0 1-7.301 2.425c-.374-2.64.512-5.27 2.462-7.189zm24.46 1.992a1.63 1.63 0 0 0-2.005 1.11C104.203 88 97.98 94.741 89.892 97.826a1.602 1.602 0 0 0-1.039 1.493v2.26h-7.32V87.091a11.905 11.905 0 0 0 9.69-3.375c3.008-2.963 4.174-7.154 3.12-11.213a1.614 1.614 0 0 0-1.173-1.154c-4.122-1.038-8.38.11-11.388 3.072a11.936 11.936 0 0 0-1.875 2.383 11.94 11.94 0 0 0-1.876-2.383c-3.009-2.962-7.266-4.11-11.388-3.072a1.614 1.614 0 0 0-1.173 1.154c-1.054 4.059.112 8.25 3.12 11.212a11.904 11.904 0 0 0 9.69 3.376v14.486h-7.32V99.32c0-.661-.413-1.254-1.04-1.493-10.567-4.031-17.667-14.237-17.667-25.396 0-15.013 12.406-27.227 27.654-27.227 12.798 0 23.847 8.539 26.87 20.764a1.628 1.628 0 0 0 1.965 1.177 1.6 1.6 0 0 0 1.196-1.935c-1.61-6.509-5.443-12.404-10.796-16.6C93.624 44.287 86.972 42 79.907 42 62.865 42 49 55.65 49 72.43a29.92 29.92 0 0 0 5.542 17.39 30.77 30.77 0 0 0 13.165 10.575v1.459c-1.894.66-3.254 2.441-3.254 4.529s1.36 3.868 3.254 4.53v1.075c0 6.624 5.473 12.012 12.2 12.012 6.727 0 12.2-5.388 12.2-12.012v-1.076c1.893-.661 3.253-2.441 3.253-4.53 0-2.087-1.36-3.867-3.253-4.528v-1.46c8.53-3.614 15.054-10.92 17.564-19.74a1.599 1.599 0 0 0-1.128-1.975z"/><path fill="#000" stroke="#FFF" d="M79.905 50.648c-.898 0-1.627.717-1.627 1.602v10.53c0 .884.729 1.6 1.627 1.6s1.627-.716 1.627-1.6V52.25c0-.885-.729-1.602-1.627-1.602m-7.116 10.998l-3.103-3.052a1.644 1.644 0 0 0-2.3 0 1.584 1.584 0 0 0 0 2.266l3.103 3.052c.318.313.734.469 1.15.469.417 0 .833-.157 1.15-.47a1.584 1.584 0 0 0 0-2.265m19.638-3.049a1.645 1.645 0 0 0-2.3 0l-3.3 3.251a1.584 1.584 0 0 0 .001 2.265c.318.313.734.469 1.15.469.417 0 .833-.157 1.151-.47l3.299-3.25a1.584 1.584 0 0 0-.001-2.265"/><circle cx="80" cy="80" r="80" fill-rule="nonzero" stroke="#E0E0E0" stroke-width="2"/></g></svg>