<svg xmlns="http://www.w3.org/2000/svg" width="162" height="162"><g fill="none" fill-rule="evenodd" transform="translate(1 1)"><circle cx="80" cy="80" r="80" fill-rule="nonzero" stroke="#E0E0E0" stroke-width="2"/><g transform="translate(41 42)"><ellipse cx="41.926" cy="15.429" fill-rule="nonzero" stroke="#222" stroke-width="2.31" rx="15.507" ry="15.429"/><path fill="#000" stroke="#FFF" stroke-width="1.155" d="M40.044 6.175v1.88a4.816 4.816 0 0 0-3.185 4.535c0 2.652 2.142 4.81 4.777 4.81a1.6 1.6 0 0 1 1.592 1.604 1.6 1.6 0 0 1-1.592 1.603c-.68 0-1.415-.43-2.068-1.213a1.585 1.585 0 0 0-2.243-.195 1.611 1.611 0 0 0-.195 2.259c.852 1.02 1.853 1.73 2.914 2.088v1.872c0 .886.713 1.603 1.592 1.603.88 0 1.592-.717 1.592-1.603v-1.88a4.817 4.817 0 0 0 3.185-4.534c0-2.653-2.143-4.811-4.777-4.811a1.6 1.6 0 0 1-1.592-1.603 1.6 1.6 0 0 1 1.592-1.604c.564 0 1.16.29 1.722.838.632.616 1.64.599 2.252-.037a1.612 1.612 0 0 0-.037-2.268c-.808-.787-1.617-1.233-2.345-1.476V6.175c0-.885-.713-1.604-1.592-1.604-.88 0-1.592.719-1.592 1.604"/><path fill="#222" stroke="#FFF" stroke-width="1.5" d="M14.858 36.571H1.8c-.994 0-1.8.819-1.8 1.826 0 1.01.806 1.827 1.8 1.827h11.257v28.124H1.8c-.995 0-1.801.817-1.801 1.826C0 71.182.806 72 1.8 72h13.058c.994 0 1.8-.818 1.8-1.826v-.016h23.83c6.9 0 13.627-1.36 19.998-4.042l19.777-8.328a7.762 7.762 0 0 0 4.294-4.587 7.906 7.906 0 0 0-.475-6.308c-1.897-3.57-6.103-5.064-9.782-3.472L53.907 52.24a1.836 1.836 0 0 0-.95 2.396 1.791 1.791 0 0 0 2.364.963l20.392-8.819c1.955-.845 4.19-.052 5.198 1.846a4.145 4.145 0 0 1 .253 3.351 4.07 4.07 0 0 1-2.283 2.438l-19.777 8.328a47.72 47.72 0 0 1-18.615 3.763h-23.83V42.05h10.66a18.47 18.47 0 0 1 11.526 4.069l7.526 6.046a3.18 3.18 0 0 1 1.16 2.95 3.151 3.151 0 0 1-1.925 2.504 3.107 3.107 0 0 1-2.929-.297l-9.615-6.475a1.786 1.786 0 0 0-2.496.51c-.55.84-.325 1.974.504 2.532l9.615 6.476a6.662 6.662 0 0 0 6.281.635c2.246-.928 3.79-2.936 4.132-5.371.341-2.435-.59-4.8-2.49-6.327l-7.527-6.046a22.057 22.057 0 0 0-13.762-4.859h-10.66c0-1.008-.807-1.826-1.801-1.826"/></g></g></svg>