<svg xmlns="http://www.w3.org/2000/svg" width="162" height="162"><g fill="none" fill-rule="evenodd" transform="translate(1 1)"><circle cx="80" cy="80" r="80" stroke="#E0E0E0" stroke-width="2"/><g stroke="#FFF"><path fill="#000" d="M114.578 78.133c0 2.97-2.44 5.385-5.44 5.385-3 0-5.44-2.416-5.44-5.385v-1.996c0-2.97 2.44-5.385 5.44-5.385 3 0 5.44 2.416 5.44 5.385v1.996zM76.412 105.3a2.725 2.725 0 0 1-2.754-.038l-15.56-9.287a1.627 1.627 0 0 0-2.221.544 1.592 1.592 0 0 0 .55 2.199l1.757 1.048c-.013.08-.02.162-.02.245v14.78H41.237V94.476c0-4.276 3.514-7.755 7.834-7.755h2.24c3.88 0 7.585 1.196 10.718 3.459l14.651 10.58a2.704 2.704 0 0 1 1.122 2.184 2.67 2.67 0 0 1-1.389 2.355zM44.261 76.137c0-2.97 2.44-5.385 5.44-5.385 2.999 0 5.44 2.416 5.44 5.385v1.996c0 2.97-2.441 5.385-5.44 5.385-3 0-5.44-2.416-5.44-5.385v-1.996zm74.96 22.74a1.61 1.61 0 0 0 1.617-1.6v-2.801c0-4.275-2.487-7.983-6.103-9.789 1.881-1.576 3.078-3.929 3.078-6.554v-1.996c0-4.735-3.892-8.588-8.675-8.588-4.784 0-8.676 3.853-8.676 8.588v1.996a8.51 8.51 0 0 0 2.377 5.897 21.407 21.407 0 0 0-7.936 3.562l-14.65 10.58a5.777 5.777 0 0 0-.834.731 5.924 5.924 0 0 0-.833-.731l-14.65-10.58a21.407 21.407 0 0 0-7.937-3.562 8.51 8.51 0 0 0 2.377-5.897v-1.996c0-4.735-3.892-8.588-8.675-8.588-4.784 0-8.676 3.853-8.676 8.588v1.996c0 2.625 1.197 4.978 3.078 6.554C40.487 86.493 38 90.201 38 94.476v21.916a1.61 1.61 0 0 0 1.618 1.601h20.165a1.61 1.61 0 0 0 1.618-1.601v-14.706l10.586 6.318a5.953 5.953 0 0 0 6.017.085c.536-.3 1.01-.67 1.415-1.094.406.423.879.794 1.415 1.094a6.004 6.004 0 0 0 2.938.774 5.99 5.99 0 0 0 3.079-.86l10.586-6.317v14.706a1.61 1.61 0 0 0 1.618 1.601h20.165a1.61 1.61 0 0 0 1.618-1.601v-5.787a1.61 1.61 0 0 0-1.618-1.602 1.61 1.61 0 0 0-1.618 1.602v4.185h-16.929v-14.78a1.64 1.64 0 0 0-.02-.244l1.758-1.05a1.592 1.592 0 0 0 .55-2.198 1.627 1.627 0 0 0-2.22-.544l-15.56 9.287a2.725 2.725 0 0 1-2.755.038 2.67 2.67 0 0 1-1.389-2.355c0-.86.42-1.677 1.122-2.185L96.81 90.18a18.191 18.191 0 0 1 10.718-3.458h2.24c4.32 0 7.834 3.479 7.834 7.755v2.8a1.61 1.61 0 0 0 1.618 1.602z"/><path fill="#222" d="M104.828 36h-5.34a1.61 1.61 0 0 0-1.617 1.602 1.61 1.61 0 0 0 1.618 1.601h1.433L82.014 57.92 69.642 45.672a1.627 1.627 0 0 0-2.288 0l-11.53 11.412a1.59 1.59 0 0 0 0 2.265 1.63 1.63 0 0 0 2.289 0l10.385-10.28L80.87 61.317a1.624 1.624 0 0 0 2.288-.001l20.05-19.848v1.419a1.61 1.61 0 0 0 1.619 1.601 1.61 1.61 0 0 0 1.618-1.601v-5.285A1.61 1.61 0 0 0 104.828 36"/></g></g></svg>