<svg xmlns="http://www.w3.org/2000/svg" width="162" height="162"><g fill="none" transform="translate(1 1)"><circle cx="80" cy="80" r="80" stroke="#E0E0E0" stroke-width="2"/><g stroke="#222" stroke-width="2.31" transform="translate(40 37)"><path d="M37.097 13.909h5.806v42.907h-5.806zm9.86-4.054l19.71 15.652"/><path fill="#FFF" d="M49.855 66.667c0-5.443-4.412-9.855-9.855-9.855-5.443 0-9.855 4.412-9.855 9.855 0 5.442 19.71 5.442 19.71 0z"/><path fill="#FFF" d="M17.438 78.845h45.124c-.584-6.505-6.05-11.603-12.707-11.603h-19.71c-6.657 0-12.123 5.098-12.707 11.603z"/><path d="M14.445 20.137L25.507 42.9 14.445 20.137a2.312 2.312 0 0 1-1.691.733 2.312 2.312 0 0 1-1.692-.733L0 42.9l11.062-22.762a2.319 2.319 0 1 1 3.383 0zm11.062 22.81c0 6.733-5.71 12.35-12.753 12.35C5.71 55.297 0 49.68 0 42.947c0-.107 6.446-.002 12.857 0 6.342 0 12.65-.105 12.65 0zm43.431-13.535L80 52.174 68.938 29.412a2.312 2.312 0 0 1-1.692.733 2.312 2.312 0 0 1-1.691-.733L54.493 52.174l11.062-22.762a2.319 2.319 0 1 1 3.383 0zM80 52.222c0 6.734-5.71 12.35-12.754 12.35-7.043 0-12.753-5.616-12.753-12.35 0-.107 6.445-.001 12.856 0 6.343 0 12.651-.104 12.651 0z"/><path stroke-linecap="square" d="M14.493 16.812l18.55-6.957"/><circle cx="40" cy="7.536" r="7.536" fill="#FFF"/></g></g></svg>