<svg xmlns="http://www.w3.org/2000/svg" width="162" height="162"><g fill="none" fill-rule="evenodd" transform="translate(1 1)"><circle cx="80" cy="80" r="80" stroke="#E0E0E0" stroke-width="2"/><g fill="#000" stroke="#FFF" stroke-width=".8"><path d="M47.112 66.035c.003-2.415 2.08-4.376 4.631-4.372l15.417.024c2.55.004 4.622 1.972 4.618 4.387l-.028 18.395c-.001.805-.694 1.46-1.544 1.458l-1.542-.002.026-16.936c.002-.807-.687-1.461-1.54-1.463-.85 0-1.542.652-1.543 1.458l-.072 47.011-4.625-.007.03-19.856c.002-.806-.687-1.46-1.54-1.462-.85-.001-1.542.651-1.543 1.457l-.03 19.856-4.625-.007.072-47.011c.001-.806-.688-1.461-1.54-1.462-.851-.002-1.542.65-1.544 1.457l-.026 16.936-1.541-.003c-.85 0-1.54-.657-1.54-1.462l.029-18.396zm1.506 22.778l1.542.003-.044 28.615c-.001.807.688 1.461 1.54 1.463l15.416.024c.852 0 1.543-.652 1.544-1.458l.044-28.616 1.542.003c2.55.004 4.628-1.958 4.631-4.373l.029-18.396c.006-4.025-3.447-7.305-7.698-7.311l-15.416-.024c-4.25-.007-7.714 3.263-7.72 7.288L44 84.426c-.004 2.416 2.068 4.384 4.618 4.387zm47.107-26.042c.198-.622.793-1.039 1.479-1.038l7.745.012c.686.001 1.28.42 1.472 1.03l7.977 26.14-7.197-.01c-.851-.002-1.542.65-1.543 1.457l-.04 25.695-3.083-.005.03-19.855c.002-.807-.688-1.461-1.539-1.463-.852 0-1.543.652-1.544 1.458l-.03 19.856-3.084-.005.04-25.696c0-.806-.688-1.46-1.54-1.462l-7.196-.011 8.053-26.103zm-10.111 29.02l7.708.012-.04 25.695c0 .806.689 1.461 1.54 1.463l12.334.019c.851.001 1.542-.652 1.543-1.458l.04-25.696 7.708.013c.485 0 .942-.215 1.234-.582a1.4 1.4 0 0 0 .25-1.284l-8.552-28.02c-.589-1.868-2.367-3.125-4.425-3.128l-7.746-.012c-2.058-.003-3.84 1.248-4.439 3.127l-8.633 27.98c-.136.44-.045.917.246 1.284.29.368.747.585 1.232.586z"/><path d="M59.46 55.835c-2.55-.004-4.621-1.972-4.618-4.387.004-2.416 2.082-4.377 4.632-4.373 2.55.004 4.622 1.972 4.618 4.387-.003 2.415-2.081 4.377-4.631 4.373m7.715-4.368c.006-4.025-3.447-7.305-7.698-7.312-4.25-.007-7.713 3.263-7.72 7.288-.005 4.025 3.448 7.305 7.698 7.312 4.25.006 7.713-3.263 7.72-7.288m33.909 4.433c-2.55-.005-4.621-1.973-4.618-4.388.004-2.415 2.081-4.377 4.632-4.373 2.55.004 4.622 1.972 4.618 4.387-.003 2.416-2.081 4.377-4.632 4.373m7.716-4.368c.006-4.025-3.447-7.305-7.698-7.312-4.25-.006-7.713 3.263-7.72 7.288-.005 4.026 3.447 7.306 7.698 7.312 4.25.007 7.713-3.263 7.72-7.288"/></g></g></svg>